<?xml version="1.0" encoding="UTF-8"?>
<svg width="162px" height="162px" viewBox="0 0 162 162" version="1.1" xmlns="http://www.w3.org/2000/svg" xmlns:xlink="http://www.w3.org/1999/xlink">
    <!-- Generator: Sketch 52.6 (67491) - http://www.bohemiancoding.com/sketch -->
    <title>Cryo_White</title>
    <desc>Created with Sketch.</desc>
    <g id="Page-1" stroke="none" stroke-width="1" fill="none" fill-rule="evenodd">
        <g id="Cryo_White" fill="#FFFFFF" fill-rule="nonzero">
            <path d="M161.33,81.17 C161.362711,40.102194 130.374347,5.64193375 89.5335651,1.32958765 C48.6927837,-2.98275844 11.1907601,24.2456554 2.6457411,64.4146535 C-5.89927786,104.583652 17.2726657,144.719039 56.3324374,157.403675 C95.3922091,170.088311 137.723883,151.225182 154.41,113.7 C155.095857,113.05208 155.489236,112.153443 155.5,111.21 C155.5,111.21 155.5,111.21 155.5,111.15 C159.361467,101.627021 161.341282,91.4460853 161.33,81.17 Z M81.17,8 C110.539432,8.02969134 137.052438,25.5961325 148.53,52.63 L14.53,51.05 C26.380772,24.8748412 52.4371276,8.04221652 81.17,8 Z M81.17,154.33 C53.1338405,154.306937 27.5702183,138.283081 15.33,113.06 L146.22,114.6 C133.679206,138.972183 108.579379,154.302178 81.17,154.33 Z M149.36,107.64 L12.35,106 C9.96383127,99.4058924 8.54576418,92.5008151 8.14,85.5 L154.07,87.12 C153.506662,94.1527165 151.91994,101.065568 149.36,107.64 Z M8.07,78.52 C8.31083594,71.5369003 9.56043924,64.6253478 11.78,58 L151.1,59.66 C153.139722,66.3024189 154.220628,73.2020358 154.31,80.15 L8.07,78.52 Z" id="Shape"></path>
        </g>
    </g>
</svg>