<?xml version="1.0" encoding="UTF-8"?>
<svg width="161px" height="162px" viewBox="0 0 161 162" version="1.1" xmlns="http://www.w3.org/2000/svg" xmlns:xlink="http://www.w3.org/1999/xlink">
    <!-- Generator: Sketch 52.6 (67491) - http://www.bohemiancoding.com/sketch -->
    <title>Lume_IV</title>
    <desc>Created with Sketch.</desc>
    <g id="Page-1" stroke="none" stroke-width="1" fill="none" fill-rule="evenodd">
        <g id="Lume_IV" transform="translate(-1.000000, 0.000000)" fill="#FFFFFF" fill-rule="nonzero">
            <path d="M161.33,81.17 C161.367746,45.7689167 138.181727,14.5338254 104.28539,4.32224117 C70.389053,-5.88934309 33.8076355,7.34025659 14.2840541,36.8710522 C-5.23952722,66.4018478 -3.08290346,105.24218 19.59,132.43 C19.6634239,132.648503 19.7642259,132.856827 19.89,133.05 C20.2035952,133.546025 20.6368786,133.955238 21.15,134.24 C36.3366434,151.460035 58.1899534,161.324974 81.15,161.324974 C104.110047,161.324974 125.963357,151.460035 141.15,134.24 C141.668073,133.958384 142.105319,133.548681 142.42,133.05 C142.538555,132.854296 142.635778,132.64644 142.71,132.43 C154.746956,118.06199 161.339238,99.9137442 161.33,81.17 Z M154.33,81.17 C154.348216,96.693111 149.396569,111.814384 140.2,124.32 L86.74,8.23 C124.85035,11.1835734 154.282511,42.9453988 154.33,81.17 Z M28.33,127.67 L81.17,12.87 L134,127.67 L28.33,127.67 Z M75.59,8.23 L22.13,124.32 C6.44057247,102.901968 3.59742287,74.6610182 14.7027663,50.5454306 C25.8081096,26.429843 49.1157798,10.2314703 75.59,8.23 Z M31.33,134.67 L131,134.67 C102.945707,160.879369 59.3842927,160.879369 31.33,134.67 Z" id="Shape"></path>
        </g>
    </g>
</svg>