<svg id="Layer_1" data-name="Layer 1" xmlns="http://www.w3.org/2000/svg" viewBox="0 0 160.33 160.33"><defs><style>.cls-1{fill:#35454f;}</style></defs><title>LumeArtboard 7</title><path class="cls-1" d="M80.17,0a80.17,80.17,0,1,0,80.16,80.17A80.26,80.26,0,0,0,80.17,0Zm0,7a73,73,0,0,1,53.38,23.2,3.48,3.48,0,0,0-2,.88L53.42,101.63,12.56,52.22A73.27,73.27,0,0,1,80.17,7ZM7,80.17A73,73,0,0,1,9.86,60l77,93.07c-2.19.2-4.41.31-6.65.31A73.25,73.25,0,0,1,7,80.17Zm87.93,71.67L57.88,107l78.41-70.76a3.44,3.44,0,0,0,1-1.7A73.11,73.11,0,0,1,94.93,151.84Z"/></svg>