<svg id="Layer_1" data-name="Layer 1" xmlns="http://www.w3.org/2000/svg" viewBox="0 0 160.33 160.33"><defs><style>.cls-1{fill:#35454f;}</style></defs><title>LumeArtboard 9</title><path class="cls-1" d="M80.17,0a80.17,80.17,0,1,0,80.16,80.17A80.26,80.26,0,0,0,80.17,0Zm63.42,43.77L82.06,150.5V7.05A73.16,73.16,0,0,1,143.59,43.77ZM75.06,7.2V149.37L15.79,45.42A73.25,73.25,0,0,1,75.06,7.2ZM7,80.17a72.85,72.85,0,0,1,5.17-27l56.58,99.24A73.28,73.28,0,0,1,7,80.17Zm81.81,72.64L147.36,51.25A73.13,73.13,0,0,1,88.81,152.81Z"/></svg>