<?xml version="1.0" encoding="UTF-8"?>
<svg width="161px" height="161px" viewBox="0 0 161 161" version="1.1" xmlns="http://www.w3.org/2000/svg" xmlns:xlink="http://www.w3.org/1999/xlink">
    <!-- Generator: Sketch 52.6 (67491) - http://www.bohemiancoding.com/sketch -->
    <title>Massage_White</title>
    <desc>Created with Sketch.</desc>
    <g id="Page-1" stroke="none" stroke-width="1" fill="none" fill-rule="evenodd">
        <g id="Massage_White" transform="translate(-1.000000, 0.000000)" fill="#FFFFFF" fill-rule="nonzero">
            <path d="M81.17,-5.22640007e-15 C48.7433521,-0.00404473595 19.507392,19.526184 7.09544839,49.4833395 C-5.31649526,79.440495 1.54004109,113.924681 24.4677137,136.855214 C47.3953863,159.785747 81.8787171,166.646585 111.837421,154.238378 C141.796124,141.830172 161.33,112.596648 161.33,80.17 C161.280412,35.9177913 125.422202,0.0551083195 81.17,-5.22640007e-15 Z M144.59,43.77 L83.06,150.5 L83.06,7.05 C108.570538,7.72096903 131.887977,21.6363983 144.59,43.77 Z M76.06,7.2 L76.06,149.37 L16.79,45.42 C28.7098331,23.3817473 51.0669552,8.96485499 76.06,7.2 Z M8,80.17 C7.99421771,70.9234544 9.74878463,61.760339 13.17,53.17 L69.75,152.41 C34.2257866,146.750116 8.06246948,116.142213 8,80.17 Z M89.81,152.81 L148.36,51.25 C157.494308,72.4488067 156.083796,96.7158247 144.554953,116.713593 C133.026109,136.711362 112.732436,150.092115 89.81,152.81 Z" id="Shape"></path>
        </g>
    </g>
</svg>