<?xml version="1.0" encoding="UTF-8"?>
<svg width="160px" height="161px" viewBox="0 0 160 161" version="1.1" xmlns="http://www.w3.org/2000/svg" xmlns:xlink="http://www.w3.org/1999/xlink">
    <!-- Generator: Sketch 52.6 (67491) - http://www.bohemiancoding.com/sketch -->
    <title>Sauna_White</title>
    <desc>Created with Sketch.</desc>
    <g id="Page-1" stroke="none" stroke-width="1" fill="none" fill-rule="evenodd">
        <g id="Sauna_White" fill="#FFFFFF" fill-rule="nonzero">
            <path d="M80.17,-7.08946587e-15 C68.5562279,-0.0088902527 57.0811815,2.52367501 46.55,7.42 C45.4637801,7.42071899 44.439824,7.92715211 43.78,8.79 C12.3724392,24.7969773 -4.88516037,59.4496754 1.26409627,94.1605503 C7.4133529,128.871425 35.5249665,155.486673 70.52,159.73 C71.0512589,160.063383 71.6629439,160.246543 72.29,160.26 C72.6962579,160.254534 73.0986403,160.180144 73.48,160.04 C75.67,160.22 77.89,160.33 80.13,160.33 C124.054873,159.850485 159.413899,124.112267 159.424858,80.1847779 C159.435817,36.2572891 124.094628,0.501431794 80.17,-7.08946587e-15 Z M70.51,7.66 C70.64,17.58 74.51,22.93 77.96,27.66 C81.41,32.39 84.17,36.17 84.08,44.38 C83.99,52.59 81,56.47 77.59,61 C73.93,65.79 69.78,71.22 69.67,81.76 C69.56,92.3 73.58,97.82 77.13,102.69 C80.46,107.26 83.34,111.2 83.25,119.41 C83.16,127.62 80.19,131.51 76.76,136 C73.62,140.1 70.14,144.69 69.13,152.54 C61.9394142,151.450246 54.9542358,149.282549 48.41,146.11 C48.87,139.88 51.6,136.63 54.72,132.91 C58.43,128.49 62.63,123.49 62.72,113.7 C62.81,103.91 58.72,98.8 55.16,94.3 C51.88,90.19 49.05,86.64 49.16,79.3 C49.27,71.96 52.16,68.53 55.54,64.51 C59.25,60.09 63.45,55.09 63.54,45.3 C63.63,35.51 59.54,30.4 55.99,25.89 C53.11,22.29 50.58,19.12 50.06,13.48 C56.552701,10.5430738 63.4438248,8.58188355 70.51,7.66 Z M7,80.17 C7.02027033,54.0688542 20.9391324,29.9537494 43.53,16.88 C44.72,22.95 47.78,26.8 50.53,30.27 C53.81,34.38 56.64,37.93 56.53,45.27 C56.42,52.61 53.58,56 50.19,60 C46.49,64.41 42.29,69.41 42.19,79.21 C42.09,89.01 46.19,94.1 49.74,98.61 C53.02,102.71 55.86,106.26 55.74,113.55 C55.62,120.84 52.74,124.32 49.35,128.34 C46.35,131.91 43.04,135.87 41.81,142.43 C20.1944809,129.117963 7.02073069,105.555834 7,80.17 Z M76.09,153.17 C76.88,147.31 79.43,143.95 82.32,140.17 C85.98,135.38 90.13,129.95 90.25,119.41 C90.37,108.87 86.34,103.35 82.79,98.48 C79.45,94 76.58,90 76.67,81.8 C76.76,73.6 79.67,69.71 83.16,65.21 C86.82,60.42 91,55 91.08,44.45 C91.16,33.9 87.17,28.39 83.62,23.52 C80.33,19 77.48,15.09 77.5,7.07 C78.39,7 79.27,7 80.17,7 C86.3225175,6.99676003 92.4508786,7.76952486 98.41,9.3 C98.1517683,9.78740105 98.0113477,10.3285341 98,10.88 C97.88,20.95 101.94,26.21 105.52,30.88 C108.82,35.16 111.67,38.88 111.58,46.49 C111.49,54.1 108.58,57.76 105.16,61.96 C101.47,66.51 97.29,71.67 97.16,81.74 C97.03,91.81 101.1,97.07 104.68,101.74 C107.98,106.02 110.83,109.74 110.74,117.35 C110.65,124.96 107.74,128.62 104.31,132.82 C100.75,137.21 96.75,142.18 96.36,151.56 C91.0457354,152.775714 85.6115473,153.389576 80.16,153.39 C78.7933333,153.35 77.4366667,153.29 76.09,153.21 L76.09,153.17 Z M103.56,149.43 C104.32,143.86 106.87,140.7 109.76,137.12 C113.45,132.57 117.63,127.41 117.76,117.34 C117.89,107.27 113.82,102.01 110.24,97.34 C106.94,93.06 104.09,89.34 104.18,81.73 C104.27,74.12 107.18,70.46 110.6,66.26 C114.29,61.71 118.47,56.54 118.6,46.47 C118.73,36.4 114.66,31.14 111.08,26.47 C107.84,22.27 105.08,18.62 105.02,11.25 C134.281301,21.8070337 153.665194,49.715507 153.340894,80.8212865 C153.016594,111.927066 133.055046,139.425335 103.58,149.37 L103.56,149.43 Z" id="Shape"></path>
        </g>
    </g>
</svg>