<svg id="Layer_1" data-name="Layer 1" xmlns="http://www.w3.org/2000/svg" viewBox="0 0 160.33 160.33"><defs><style>.cls-1{fill:#35454f;}</style></defs><title>LumeArtboard 6</title><path class="cls-1" d="M80.17,0A79.6,79.6,0,0,0,46.55,7.42h0a3.49,3.49,0,0,0-2.77,1.37A80.13,80.13,0,0,0,70.52,159.73a3.47,3.47,0,0,0,1.77.53h0a3.59,3.59,0,0,0,1.19-.22c2.19.18,4.41.29,6.65.29A80.17,80.17,0,0,0,80.17,0ZM70.51,7.66c.13,9.92,4,15.27,7.45,20s6.21,8.51,6.12,16.72S81,56.47,77.59,61c-3.66,4.79-7.81,10.22-7.92,20.76s3.91,16.06,7.46,20.93c3.33,4.57,6.21,8.51,6.12,16.72s-3.06,12.1-6.49,16.59c-3.14,4.1-6.62,8.69-7.63,16.54a72.35,72.35,0,0,1-20.72-6.43c.46-6.23,3.19-9.48,6.31-13.2,3.71-4.42,7.91-9.42,8-19.21s-4-14.9-7.56-19.4c-3.28-4.11-6.11-7.66-6-15s3-10.77,6.38-14.79c3.71-4.42,7.91-9.42,8-19.21s-4-14.9-7.55-19.41c-2.88-3.6-5.41-6.77-5.93-12.41A72.32,72.32,0,0,1,70.51,7.66ZM7,80.17A73.19,73.19,0,0,1,43.53,16.88c1.19,6.07,4.25,9.92,7,13.39,3.28,4.11,6.11,7.66,6,15S53.58,56,50.19,60c-3.7,4.41-7.9,9.41-8,19.21s4,14.89,7.55,19.4c3.28,4.1,6.12,7.65,6,14.94s-3,10.77-6.39,14.79c-3,3.57-6.31,7.53-7.54,14.09A73.19,73.19,0,0,1,7,80.17Zm69.09,73c.79-5.86,3.34-9.22,6.23-13,3.66-4.79,7.81-10.22,7.93-20.76s-3.91-16.06-7.46-20.93C79.45,94,76.58,90,76.67,81.8s3-12.09,6.49-16.59C86.82,60.42,91,55,91.08,44.45s-3.91-16.06-7.46-20.93C80.33,19,77.48,15.09,77.5,7.07,78.39,7,79.27,7,80.17,7A73.17,73.17,0,0,1,98.41,9.3,3.53,3.53,0,0,0,98,10.88c-.12,10.07,3.94,15.33,7.52,20,3.3,4.28,6.15,8,6.06,15.61s-3,11.27-6.42,15.47c-3.69,4.55-7.87,9.71-8,19.78s3.94,15.33,7.52,20c3.3,4.28,6.15,8,6.06,15.61s-3,11.27-6.43,15.47c-3.56,4.39-7.56,9.36-7.95,18.74a72.67,72.67,0,0,1-16.2,1.83Q78.11,153.33,76.09,153.21Zm27.47-3.74c.76-5.57,3.31-8.73,6.2-12.31,3.69-4.55,7.87-9.71,8-19.78s-3.94-15.33-7.52-20c-3.3-4.28-6.15-8-6.06-15.61s3-11.27,6.42-15.47c3.69-4.55,7.87-9.72,8-19.79s-3.94-15.33-7.52-20c-3.24-4.2-6-7.85-6.06-15.22a73.15,73.15,0,0,1-1.44,138.12Z"/></svg>