<svg id="Layer_1" data-name="Layer 1" xmlns="http://www.w3.org/2000/svg" viewBox="0 0 160.33 160.33"><defs><style>.cls-1{fill:#35454f;}</style></defs><title>Vince JulyArtboard 5</title><path class="cls-1" d="M160.33,80.17a80.22,80.22,0,1,0-6.92,32.53,3.48,3.48,0,0,0,1.09-2.49s0,0,0-.06A79.55,79.55,0,0,0,160.33,80.17ZM80.17,7a73.26,73.26,0,0,1,67.36,44.63l-134-1.58A73.27,73.27,0,0,1,80.17,7Zm0,146.33a73.25,73.25,0,0,1-65.84-41.27l130.89,1.54A73.24,73.24,0,0,1,80.17,153.33Zm68.19-46.69L11.35,105a72.59,72.59,0,0,1-4.21-20.5l145.93,1.62A72.51,72.51,0,0,1,148.36,106.64ZM7.07,77.52A72.46,72.46,0,0,1,10.78,57L150.1,58.66a73,73,0,0,1,3.21,20.49Z"/></svg>